<svg id="visual" viewBox="0 0 1440 600" width="1440" height="600" xmlns="http://www.w3.org/2000/svg" xmlns:xlink="http://www.w3.org/1999/xlink" version="1.1"><path d="M0 382L34.3 409.3C68.7 436.7 137.3 491.3 205.8 501.3C274.3 511.3 342.7 476.7 411.2 456.5C479.7 436.3 548.3 430.7 617 417.5C685.7 404.3 754.3 383.7 823 374.2C891.7 364.7 960.3 366.3 1028.8 373.7C1097.3 381 1165.7 394 1234.2 413C1302.7 432 1371.3 457 1405.7 469.5L1440 482L1440 0L1405.7 0C1371.3 0 1302.7 0 1234.2 0C1165.7 0 1097.3 0 1028.8 0C960.3 0 891.7 0 823 0C754.3 0 685.7 0 617 0C548.3 0 479.7 0 411.2 0C342.7 0 274.3 0 205.8 0C137.3 0 68.7 0 34.3 0L0 0Z" fill="#fff9f1"></path><path d="M0 318L34.3 331.3C68.7 344.7 137.3 371.3 205.8 365.8C274.3 360.3 342.7 322.7 411.2 326.8C479.7 331 548.3 377 617 397.8C685.7 418.7 754.3 414.3 823 409.5C891.7 404.7 960.3 399.3 1028.8 385.2C1097.3 371 1165.7 348 1234.2 345.7C1302.7 343.3 1371.3 361.7 1405.7 370.8L1440 380L1440 0L1405.7 0C1371.3 0 1302.7 0 1234.2 0C1165.7 0 1097.3 0 1028.8 0C960.3 0 891.7 0 823 0C754.3 0 685.7 0 617 0C548.3 0 479.7 0 411.2 0C342.7 0 274.3 0 205.8 0C137.3 0 68.7 0 34.3 0L0 0Z" fill="#eae8d7"></path><path d="M0 249L34.3 238.7C68.7 228.3 137.3 207.7 205.8 214.3C274.3 221 342.7 255 411.2 266.2C479.7 277.3 548.3 265.7 617 268.7C685.7 271.7 754.3 289.3 823 290.2C891.7 291 960.3 275 1028.8 257C1097.3 239 1165.7 219 1234.2 206.5C1302.7 194 1371.3 189 1405.7 186.5L1440 184L1440 0L1405.7 0C1371.3 0 1302.7 0 1234.2 0C1165.7 0 1097.3 0 1028.8 0C960.3 0 891.7 0 823 0C754.3 0 685.7 0 617 0C548.3 0 479.7 0 411.2 0C342.7 0 274.3 0 205.8 0C137.3 0 68.7 0 34.3 0L0 0Z" fill="#cedac1"></path><path d="M0 76L34.3 87C68.7 98 137.3 120 205.8 124.2C274.3 128.3 342.7 114.7 411.2 119.5C479.7 124.3 548.3 147.7 617 145.7C685.7 143.7 754.3 116.3 823 110.5C891.7 104.7 960.3 120.3 1028.8 134.3C1097.3 148.3 1165.7 160.7 1234.2 151C1302.7 141.3 1371.3 109.7 1405.7 93.8L1440 78L1440 0L1405.7 0C1371.3 0 1302.7 0 1234.2 0C1165.7 0 1097.3 0 1028.8 0C960.3 0 891.7 0 823 0C754.3 0 685.7 0 617 0C548.3 0 479.7 0 411.2 0C342.7 0 274.3 0 205.8 0C137.3 0 68.7 0 34.3 0L0 0Z" fill="#abccb2"></path></svg>