<?xml version="1.0" encoding="UTF-8"?><svg id="Layer_1" xmlns="http://www.w3.org/2000/svg" viewBox="0 0 1440 644.12"><defs><style>.cls-1{fill:#f1b7b2;}.cls-2{fill:#eae8d7;}.cls-3{fill:#fff9f1;}.cls-4{fill:#cedac1;}.cls-5{fill:#abccb2;}</style></defs><g id="Layer_3"><path class="cls-1" d="m0,603.47h0c157.56,0,240-46.7,360-62s240-22.7,360-12,240,39.3,360,47.3,240-4.6,300-11l60-6.3V0H0v603.47Z"/></g><g id="Layer_2"><path class="cls-3" d="m0,380s115.98,117.69,250.07,117.69,298.23-68.99,366.93-82.19,137.3-33.8,206-43.3,137.3-7.9,205.8-.5c221.44,7.62,312.35,103.74,411.2,103.74V13H0v367Z"/><path class="cls-2" d="m0,318l34.3,13.3c34.4,13.4,103,40,171.5,34.5,68.5-5.5,136.9-43.1,205.4-39,68.5,4.2,137.1,50.2,205.8,71,68.7,20.9,137.3,16.5,206,11.7s137.3-10.2,205.8-24.3c68.5-14.2,136.9-37.2,205.4-39.5,68.5-2.4,137.1,16,171.5,25.1l34.3,9.2V0H0v318Z"/><path class="cls-4" d="m0,249l34.3-10.3c34.4-10.4,103-31,171.5-24.4,68.5,6.7,136.9,40.7,205.4,51.9,68.5,11.1,137.1-.5,205.8,2.5s137.3,20.6,206,21.5c68.7.8,137.3-15.2,205.8-33.2,68.5-18,136.9-38,205.4-50.5s137.1-17.5,171.5-20l34.3-2.5V0H0v249Z"/><path class="cls-5" d="m0,76l34.3,11c34.4,11,103,33,171.5,37.2,68.5,4.1,136.9-9.5,205.4-4.7s137.1,28.2,205.8,26.2,137.3-29.4,206-35.2,137.3,9.8,205.8,23.8c68.5,14,136.9,26.4,205.4,16.7s137.1-41.3,171.5-57.2l34.3-15.8V0H0v76Z"/></g></svg>